<svg width="196" height="65" viewBox="0 0 196 65" fill="none" xmlns="http://www.w3.org/2000/svg">
<path d="M45.8821 48.3102C44.1954 48.3102 42.7361 47.9802 41.5041 47.3202C40.2867 46.6602 39.3407 45.7288 38.6661 44.5262C38.0061 43.3235 37.6761 41.9155 37.6761 40.3022C37.6761 38.6888 38.0061 37.2882 38.6661 36.1002C39.3407 34.8975 40.2867 33.9662 41.5041 33.3062C42.7361 32.6462 44.1954 32.3162 45.8821 32.3162C46.9527 32.3162 47.9281 32.4628 48.8081 32.7562C49.6881 33.0348 50.4287 33.4382 51.0301 33.9662L49.8201 37.1562C49.1454 36.6722 48.5221 36.3348 47.9501 36.1442C47.3927 35.9388 46.7547 35.8362 46.0361 35.8362C44.7161 35.8362 43.6967 36.2248 42.9781 37.0022C42.2741 37.7648 41.9221 38.8648 41.9221 40.3022C41.9221 41.7542 42.2741 42.8688 42.9781 43.6462C43.6967 44.4088 44.7161 44.7902 46.0361 44.7902C46.7547 44.7902 47.3927 44.6948 47.9501 44.5042C48.5221 44.2988 49.1454 43.9542 49.8201 43.4702L51.0301 46.6602C50.4287 47.1882 49.6881 47.5988 48.8081 47.8922C47.9281 48.1708 46.9527 48.3102 45.8821 48.3102ZM56.9264 48.3102C55.9584 48.3102 55.1077 48.0828 54.3744 47.6282C53.6411 47.1588 53.0617 46.4842 52.6364 45.6042C52.2257 44.7242 52.0204 43.6828 52.0204 42.4802C52.0204 41.2628 52.2257 40.2215 52.6364 39.3562C53.0617 38.4762 53.6411 37.8088 54.3744 37.3542C55.1077 36.8848 55.9584 36.6502 56.9264 36.6502C57.7917 36.6502 58.5691 36.8555 59.2584 37.2662C59.9624 37.6768 60.4244 38.2122 60.6444 38.8722H60.4244L60.6664 36.8922H64.4284C64.3844 37.3908 64.3404 37.8968 64.2964 38.4102C64.2671 38.9235 64.2524 39.4295 64.2524 39.9282V48.0682H60.3804L60.3364 46.1762H60.6004C60.3804 46.8215 59.9184 47.3422 59.2144 47.7382C58.5251 48.1195 57.7624 48.3102 56.9264 48.3102ZM58.1804 45.4062C58.8404 45.4062 59.3757 45.1788 59.7864 44.7242C60.1971 44.2548 60.4024 43.5068 60.4024 42.4802C60.4024 41.4535 60.1971 40.7128 59.7864 40.2582C59.3757 39.7888 58.8404 39.5542 58.1804 39.5542C57.5204 39.5542 56.9851 39.7888 56.5744 40.2582C56.1637 40.7128 55.9584 41.4535 55.9584 42.4802C55.9584 43.5068 56.1564 44.2548 56.5524 44.7242C56.9631 45.1788 57.5057 45.4062 58.1804 45.4062ZM66.6846 48.0682V39.9502C66.6846 39.4368 66.6699 38.9235 66.6406 38.4102C66.6113 37.8968 66.5673 37.3908 66.5086 36.8922H70.2926L70.7106 40.3242H70.1166C70.2633 39.4882 70.4979 38.7988 70.8206 38.2562C71.1433 37.7135 71.5466 37.3102 72.0306 37.0462C72.5146 36.7822 73.0866 36.6502 73.7466 36.6502C74.0546 36.6502 74.2819 36.6648 74.4286 36.6942C74.5899 36.7088 74.7586 36.7528 74.9346 36.8262V40.2582C74.5679 40.0968 74.2746 39.9942 74.0546 39.9502C73.8346 39.9062 73.5486 39.8842 73.1966 39.8842C72.5953 39.8842 72.1039 39.9942 71.7226 40.2142C71.3413 40.4195 71.0626 40.7422 70.8866 41.1822C70.7253 41.6222 70.6446 42.1868 70.6446 42.8762V48.0682H66.6846ZM81.8189 48.3102C79.7949 48.3102 78.2182 47.7895 77.0889 46.7482C75.9742 45.7068 75.4169 44.2768 75.4169 42.4582C75.4169 41.3288 75.6516 40.3242 76.1209 39.4442C76.5902 38.5642 77.2502 37.8822 78.1009 37.3982C78.9516 36.8995 79.9489 36.6502 81.0929 36.6502C82.2222 36.6502 83.1609 36.8995 83.9089 37.3982C84.6716 37.8822 85.2436 38.5568 85.6249 39.4222C86.0062 40.2728 86.1969 41.2628 86.1969 42.3922V43.2282H78.6949V41.3802H83.3149L82.9409 41.6882C82.9409 40.8522 82.7796 40.2362 82.4569 39.8402C82.1489 39.4295 81.7089 39.2242 81.1369 39.2242C80.4769 39.2242 79.9709 39.4735 79.6189 39.9722C79.2816 40.4562 79.1129 41.1895 79.1129 42.1722V42.5682C79.1129 43.5508 79.3549 44.2695 79.8389 44.7242C80.3229 45.1788 81.0196 45.4062 81.9289 45.4062C82.5156 45.4062 83.0656 45.3402 83.5789 45.2082C84.1069 45.0762 84.6056 44.8635 85.0749 44.5702L86.0869 47.1222C85.5296 47.5035 84.8842 47.7968 84.1509 48.0022C83.4176 48.2075 82.6402 48.3102 81.8189 48.3102ZM93.9576 48.3102C91.9336 48.3102 90.3569 47.7895 89.2276 46.7482C88.1129 45.7068 87.5556 44.2768 87.5556 42.4582C87.5556 41.3288 87.7902 40.3242 88.2596 39.4442C88.7289 38.5642 89.3889 37.8822 90.2396 37.3982C91.0902 36.8995 92.0876 36.6502 93.2316 36.6502C94.3609 36.6502 95.2996 36.8995 96.0476 37.3982C96.8102 37.8822 97.3822 38.5568 97.7636 39.4222C98.1449 40.2728 98.3356 41.2628 98.3356 42.3922V43.2282H90.8336V41.3802H95.4536L95.0796 41.6882C95.0796 40.8522 94.9182 40.2362 94.5956 39.8402C94.2876 39.4295 93.8476 39.2242 93.2756 39.2242C92.6156 39.2242 92.1096 39.4735 91.7576 39.9722C91.4202 40.4562 91.2516 41.1895 91.2516 42.1722V42.5682C91.2516 43.5508 91.4936 44.2695 91.9776 44.7242C92.4616 45.1788 93.1582 45.4062 94.0676 45.4062C94.6542 45.4062 95.2042 45.3402 95.7176 45.2082C96.2456 45.0762 96.7442 44.8635 97.2136 44.5702L98.2256 47.1222C97.6682 47.5035 97.0229 47.7968 96.2896 48.0022C95.5562 48.2075 94.7789 48.3102 93.9576 48.3102ZM100.2 48.0682V39.9502C100.2 39.4368 100.186 38.9235 100.156 38.4102C100.127 37.8968 100.083 37.3908 100.024 36.8922H103.808L104.226 40.3242H103.632C103.779 39.4882 104.014 38.7988 104.336 38.2562C104.659 37.7135 105.062 37.3102 105.546 37.0462C106.03 36.7822 106.602 36.6502 107.262 36.6502C107.57 36.6502 107.798 36.6648 107.944 36.6942C108.106 36.7088 108.274 36.7528 108.45 36.8262V40.2582C108.084 40.0968 107.79 39.9942 107.57 39.9502C107.35 39.9062 107.064 39.8842 106.712 39.8842C106.111 39.8842 105.62 39.9942 105.238 40.2142C104.857 40.4195 104.578 40.7422 104.402 41.1822C104.241 41.6222 104.16 42.1868 104.16 42.8762V48.0682H100.2ZM117.64 48.3102C115.953 48.3102 114.494 47.9802 113.262 47.3202C112.045 46.6602 111.099 45.7288 110.424 44.5262C109.764 43.3235 109.434 41.9155 109.434 40.3022C109.434 38.6888 109.764 37.2882 110.424 36.1002C111.099 34.8975 112.045 33.9662 113.262 33.3062C114.494 32.6462 115.953 32.3162 117.64 32.3162C118.711 32.3162 119.686 32.4628 120.566 32.7562C121.446 33.0348 122.187 33.4382 122.788 33.9662L121.578 37.1562C120.903 36.6722 120.28 36.3348 119.708 36.1442C119.151 35.9388 118.513 35.8362 117.794 35.8362C116.474 35.8362 115.455 36.2248 114.736 37.0022C114.032 37.7648 113.68 38.8648 113.68 40.3022C113.68 41.7542 114.032 42.8688 114.736 43.6462C115.455 44.4088 116.474 44.7902 117.794 44.7902C118.513 44.7902 119.151 44.6948 119.708 44.5042C120.28 44.2988 120.903 43.9542 121.578 43.4702L122.788 46.6602C122.187 47.1882 121.446 47.5988 120.566 47.8922C119.686 48.1708 118.711 48.3102 117.64 48.3102ZM124.692 48.0682V39.9502C124.692 39.4368 124.678 38.9235 124.648 38.4102C124.619 37.8968 124.575 37.3908 124.516 36.8922H128.3L128.718 40.3242H128.124C128.271 39.4882 128.506 38.7988 128.828 38.2562C129.151 37.7135 129.554 37.3102 130.038 37.0462C130.522 36.7822 131.094 36.6502 131.754 36.6502C132.062 36.6502 132.29 36.6648 132.436 36.6942C132.598 36.7088 132.766 36.7528 132.942 36.8262V40.2582C132.576 40.0968 132.282 39.9942 132.062 39.9502C131.842 39.9062 131.556 39.8842 131.204 39.8842C130.603 39.8842 130.112 39.9942 129.73 40.2142C129.349 40.4195 129.07 40.7422 128.894 41.1822C128.733 41.6222 128.652 42.1868 128.652 42.8762V48.0682H124.692ZM138.238 48.3102C136.815 48.3102 135.759 47.9215 135.07 47.1442C134.395 46.3522 134.058 45.1568 134.058 43.5582V36.8922H137.974V43.5802C137.974 44.1668 138.091 44.6068 138.326 44.9002C138.575 45.1788 138.949 45.3182 139.448 45.3182C140.005 45.3182 140.46 45.1202 140.812 44.7242C141.179 44.3135 141.362 43.7782 141.362 43.1182V36.8922H145.278V48.0682H141.472V46.0662H141.802C141.45 46.7848 140.973 47.3422 140.372 47.7382C139.771 48.1195 139.059 48.3102 138.238 48.3102ZM147.724 48.0682V36.8922H151.64V48.0682H147.724ZM147.636 35.3082V31.7882H151.75V35.3082H147.636ZM158.352 48.3102C157.31 48.3102 156.364 48.2075 155.514 48.0022C154.678 47.7822 153.966 47.4888 153.38 47.1222L154.326 44.5702C154.898 44.8928 155.536 45.1568 156.24 45.3622C156.958 45.5675 157.67 45.6702 158.374 45.6702C158.931 45.6702 159.334 45.5895 159.584 45.4282C159.848 45.2522 159.98 45.0248 159.98 44.7462C159.98 44.5262 159.899 44.3502 159.738 44.2182C159.576 44.0862 159.334 43.9908 159.012 43.9322L156.636 43.5142C155.697 43.3382 154.964 42.9935 154.436 42.4802C153.922 41.9522 153.666 41.2702 153.666 40.4342C153.666 39.6715 153.871 39.0115 154.282 38.4542C154.692 37.8822 155.279 37.4422 156.042 37.1342C156.804 36.8115 157.706 36.6502 158.748 36.6502C159.598 36.6502 160.405 36.7455 161.168 36.9362C161.945 37.1268 162.62 37.4275 163.192 37.8382L162.18 40.3242C161.725 40.0162 161.19 39.7668 160.574 39.5762C159.972 39.3708 159.408 39.2682 158.88 39.2682C158.249 39.2682 157.802 39.3635 157.538 39.5542C157.274 39.7302 157.142 39.9502 157.142 40.2142C157.142 40.4195 157.215 40.5955 157.362 40.7422C157.508 40.8742 157.743 40.9695 158.066 41.0282L160.442 41.4462C161.41 41.6075 162.15 41.9448 162.664 42.4582C163.192 42.9568 163.456 43.6388 163.456 44.5042C163.456 45.3108 163.236 46.0002 162.796 46.5722C162.37 47.1295 161.776 47.5622 161.014 47.8702C160.251 48.1635 159.364 48.3102 158.352 48.3102ZM171.086 48.3102C169.062 48.3102 167.486 47.7895 166.356 46.7482C165.242 45.7068 164.684 44.2768 164.684 42.4582C164.684 41.3288 164.919 40.3242 165.388 39.4442C165.858 38.5642 166.518 37.8822 167.368 37.3982C168.219 36.8995 169.216 36.6502 170.36 36.6502C171.49 36.6502 172.428 36.8995 173.176 37.3982C173.939 37.8822 174.511 38.5568 174.892 39.4222C175.274 40.2728 175.464 41.2628 175.464 42.3922V43.2282H167.962V41.3802H172.582L172.208 41.6882C172.208 40.8522 172.047 40.2362 171.724 39.8402C171.416 39.4295 170.976 39.2242 170.404 39.2242C169.744 39.2242 169.238 39.4735 168.886 39.9722C168.549 40.4562 168.38 41.1895 168.38 42.1722V42.5682C168.38 43.5508 168.622 44.2695 169.106 44.7242C169.59 45.1788 170.287 45.4062 171.196 45.4062C171.783 45.4062 172.333 45.3402 172.846 45.2082C173.374 45.0762 173.873 44.8635 174.342 44.5702L175.354 47.1222C174.797 47.5035 174.152 47.7968 173.418 48.0022C172.685 48.2075 171.908 48.3102 171.086 48.3102Z" fill="white"/>
<rect x="21.9702" y="9.54816" width="19.7838" height="20.2482" rx="3" fill="#FFA800"/>
<rect x="10.5869" y="21.9943" width="7.62313" height="7.80208" rx="1" fill="#4CE0F4"/>
<rect x="45.5137" y="19.6723" width="10.174" height="10.1241" rx="2" fill="#FB570F"/>
<path d="M146.171 32.2897C146.171 30.3529 147.758 28.7829 149.695 28.7829C151.632 28.7829 153.219 30.3529 153.219 32.2897C153.219 34.2264 151.632 35.7964 149.695 35.7964C147.758 35.7964 146.171 34.2264 146.171 32.2897Z" fill="#FFB800"/>
<rect x="21.9702" y="34.5345" width="12.0746" height="12.3533" rx="2" fill="#FB570F"/>
</svg>
